<svg xmlns="http://www.w3.org/2000/svg" viewBox="0 0 200 200" width="64" height="64">
  <defs>
    <radialGradient id="petalGrad" gradientUnits="userSpaceOnUse" cx="0" cy="0" r="95">
      <stop offset="0%" stop-color="#fef7f9"/>
      <stop offset="55%" stop-color="#fbdce8"/>
      <stop offset="100%" stop-color="#f2a8c4"/>
    </radialGradient>
  </defs>

  <g transform="translate(100,100)">
    <g fill="url(#petalGrad)" stroke="#e58fae" stroke-width="1.3" stroke-linejoin="round">
      <path d="M0,0 C-52,-18 -65,-58 -32,-82 C-16,-92 16,-92 32,-82 C65,-58 52,-18 0,0 Z" transform="rotate(0)"/>
      <path d="M0,0 C-52,-18 -65,-58 -32,-82 C-16,-92 16,-92 32,-82 C65,-58 52,-18 0,0 Z" transform="rotate(72)"/>
      <path d="M0,0 C-52,-18 -65,-58 -32,-82 C-16,-92 16,-92 32,-82 C65,-58 52,-18 0,0 Z" transform="rotate(144)"/>
      <path d="M0,0 C-52,-18 -65,-58 -32,-82 C-16,-92 16,-92 32,-82 C65,-58 52,-18 0,0 Z" transform="rotate(216)"/>
      <path d="M0,0 C-52,-18 -65,-58 -32,-82 C-16,-92 16,-92 32,-82 C65,-58 52,-18 0,0 Z" transform="rotate(288)"/>
    </g>

    <g stroke="#a8703f" stroke-width="2.4" stroke-linecap="round" fill="none">
      <path d="M0,0 Q3,-16 8,-30" transform="rotate(0)"/>
      <path d="M0,0 Q3,-16 8,-30" transform="rotate(40)"/>
      <path d="M0,0 Q3,-16 8,-30" transform="rotate(80)"/>
      <path d="M0,0 Q3,-16 8,-30" transform="rotate(120)"/>
      <path d="M0,0 Q3,-16 8,-30" transform="rotate(160)"/>
      <path d="M0,0 Q3,-16 8,-30" transform="rotate(200)"/>
      <path d="M0,0 Q3,-16 8,-30" transform="rotate(240)"/>
      <path d="M0,0 Q3,-16 8,-30" transform="rotate(280)"/>
      <path d="M0,0 Q3,-16 8,-30" transform="rotate(320)"/>
    </g>
    <g fill="#8a5a35">
      <circle cx="8" cy="-30" r="2.6" transform="rotate(0)"/>
      <circle cx="8" cy="-30" r="2.6" transform="rotate(40)"/>
      <circle cx="8" cy="-30" r="2.6" transform="rotate(80)"/>
      <circle cx="8" cy="-30" r="2.6" transform="rotate(120)"/>
      <circle cx="8" cy="-30" r="2.6" transform="rotate(160)"/>
      <circle cx="8" cy="-30" r="2.6" transform="rotate(200)"/>
      <circle cx="8" cy="-30" r="2.6" transform="rotate(240)"/>
      <circle cx="8" cy="-30" r="2.6" transform="rotate(280)"/>
      <circle cx="8" cy="-30" r="2.6" transform="rotate(320)"/>
    </g>
    <circle cx="0" cy="0" r="7" fill="#a8703f"/>
  </g>
</svg>
